<mxfile host="app.diagrams.net" modified="2023-10-22T17:50:00.487Z" agent="Mozilla/5.0 (X11; Linux x86_64) AppleWebKit/537.36 (KHTML, like Gecko) Chrome/118.0.0.0 Safari/537.36" etag="Ql35WtbJEiY3ayvX1F8Y" version="22.0.6" type="github">
  <diagram name="Page-1" id="ZLiq2edxMS0cv6fiokzf">
    <mxGraphModel dx="826" dy="447" grid="1" gridSize="10" guides="1" tooltips="1" connect="1" arrows="1" fold="1" page="1" pageScale="1" pageWidth="850" pageHeight="1100" math="0" shadow="0">
      <root>
        <mxCell id="0" />
        <mxCell id="1" parent="0" />
        <mxCell id="nKG7n8L-xtxlPjdhawn2-1" value="file:///home/sinclair-fotso/Downloads/Untitled%20Diagram.drawio" style="text;whiteSpace=wrap;html=1;" parent="1" vertex="1">
          <mxGeometry x="440" y="30" width="380" height="40" as="geometry" />
        </mxCell>
        <mxCell id="55DVX-BUdbQK49yPEl8O-2" value="" style="whiteSpace=wrap;html=1;aspect=fixed;" vertex="1" parent="1">
          <mxGeometry x="150" y="40" width="460" height="460" as="geometry" />
        </mxCell>
        <mxCell id="55DVX-BUdbQK49yPEl8O-3" value="&lt;b&gt;&lt;font style=&quot;font-size: 16px;&quot;&gt;Gerer les incidens&lt;/font&gt;&lt;/b&gt;" style="text;strokeColor=none;align=center;fillColor=none;html=1;verticalAlign=middle;whiteSpace=wrap;rounded=0;" vertex="1" parent="1">
          <mxGeometry x="310" y="50" width="160" height="30" as="geometry" />
        </mxCell>
        <mxCell id="55DVX-BUdbQK49yPEl8O-4" value="Medecin" style="shape=umlActor;verticalLabelPosition=bottom;verticalAlign=top;html=1;outlineConnect=0;" vertex="1" parent="1">
          <mxGeometry x="60" y="260" width="30" height="70" as="geometry" />
        </mxCell>
        <mxCell id="55DVX-BUdbQK49yPEl8O-7" value="User" style="shape=umlActor;verticalLabelPosition=bottom;verticalAlign=top;html=1;outlineConnect=0;" vertex="1" parent="1">
          <mxGeometry x="80" y="130" width="30" height="70" as="geometry" />
        </mxCell>
        <mxCell id="55DVX-BUdbQK49yPEl8O-8" value="Admin" style="shape=umlActor;verticalLabelPosition=bottom;verticalAlign=top;html=1;outlineConnect=0;" vertex="1" parent="1">
          <mxGeometry x="670" y="180" width="30" height="70" as="geometry" />
        </mxCell>
        <mxCell id="55DVX-BUdbQK49yPEl8O-18" value="extend" style="edgeStyle=orthogonalEdgeStyle;rounded=0;orthogonalLoop=1;jettySize=auto;html=1;" edge="1" parent="1" source="55DVX-BUdbQK49yPEl8O-9">
          <mxGeometry relative="1" as="geometry">
            <mxPoint x="445" y="190" as="sourcePoint" />
            <mxPoint x="425" y="330" as="targetPoint" />
          </mxGeometry>
        </mxCell>
        <mxCell id="55DVX-BUdbQK49yPEl8O-19" value="Extend" style="edgeStyle=orthogonalEdgeStyle;rounded=0;orthogonalLoop=1;jettySize=auto;html=1;" edge="1" parent="1">
          <mxGeometry relative="1" as="geometry">
            <mxPoint x="475.4" y="160" as="sourcePoint" />
            <mxPoint x="560.4" y="330" as="targetPoint" />
            <Array as="points">
              <mxPoint x="460" y="160" />
              <mxPoint x="460" y="240" />
              <mxPoint x="530" y="240" />
              <mxPoint x="530" y="330" />
            </Array>
          </mxGeometry>
        </mxCell>
        <mxCell id="55DVX-BUdbQK49yPEl8O-20" value="extend" style="edgeStyle=orthogonalEdgeStyle;rounded=0;orthogonalLoop=1;jettySize=auto;html=1;entryX=0.5;entryY=0;entryDx=0;entryDy=0;" edge="1" parent="1" source="55DVX-BUdbQK49yPEl8O-9" target="55DVX-BUdbQK49yPEl8O-14">
          <mxGeometry relative="1" as="geometry">
            <Array as="points">
              <mxPoint x="410" y="295" />
              <mxPoint x="370" y="295" />
            </Array>
          </mxGeometry>
        </mxCell>
        <mxCell id="55DVX-BUdbQK49yPEl8O-21" value="extend" style="edgeStyle=orthogonalEdgeStyle;rounded=0;orthogonalLoop=1;jettySize=auto;html=1;" edge="1" parent="1" source="55DVX-BUdbQK49yPEl8O-9" target="55DVX-BUdbQK49yPEl8O-17">
          <mxGeometry relative="1" as="geometry">
            <Array as="points">
              <mxPoint x="375" y="160" />
              <mxPoint x="375" y="230" />
              <mxPoint x="300" y="230" />
            </Array>
          </mxGeometry>
        </mxCell>
        <mxCell id="55DVX-BUdbQK49yPEl8O-11" value="" style="endArrow=none;html=1;rounded=0;exitX=0.973;exitY=0.8;exitDx=0;exitDy=0;exitPerimeter=0;" edge="1" parent="1" source="55DVX-BUdbQK49yPEl8O-9">
          <mxGeometry width="50" height="50" relative="1" as="geometry">
            <mxPoint x="459.9999999999999" y="149.99999999999994" as="sourcePoint" />
            <mxPoint x="685.4" y="223.3206322795341" as="targetPoint" />
          </mxGeometry>
        </mxCell>
        <mxCell id="55DVX-BUdbQK49yPEl8O-13" value="" style="endArrow=none;html=1;rounded=0;entryX=0;entryY=0.5;entryDx=0;entryDy=0;" edge="1" parent="1" source="55DVX-BUdbQK49yPEl8O-7" target="55DVX-BUdbQK49yPEl8O-22">
          <mxGeometry width="50" height="50" relative="1" as="geometry">
            <mxPoint x="100" y="296" as="sourcePoint" />
            <mxPoint x="296" y="183" as="targetPoint" />
          </mxGeometry>
        </mxCell>
        <mxCell id="55DVX-BUdbQK49yPEl8O-14" value="Recherche un incident" style="ellipse;whiteSpace=wrap;html=1;" vertex="1" parent="1">
          <mxGeometry x="315" y="400" width="110" height="50" as="geometry" />
        </mxCell>
        <mxCell id="55DVX-BUdbQK49yPEl8O-15" value="Modifier un incident" style="ellipse;whiteSpace=wrap;html=1;" vertex="1" parent="1">
          <mxGeometry x="380" y="330" width="110" height="50" as="geometry" />
        </mxCell>
        <mxCell id="55DVX-BUdbQK49yPEl8O-16" value="Ajouter un incident" style="ellipse;whiteSpace=wrap;html=1;" vertex="1" parent="1">
          <mxGeometry x="480" y="280" width="110" height="50" as="geometry" />
        </mxCell>
        <mxCell id="55DVX-BUdbQK49yPEl8O-17" value="Supprimer un incident" style="ellipse;whiteSpace=wrap;html=1;" vertex="1" parent="1">
          <mxGeometry x="220" y="350" width="110" height="50" as="geometry" />
        </mxCell>
        <mxCell id="55DVX-BUdbQK49yPEl8O-25" value="extend" style="edgeStyle=orthogonalEdgeStyle;rounded=0;orthogonalLoop=1;jettySize=auto;html=1;entryX=0.5;entryY=0;entryDx=0;entryDy=0;" edge="1" parent="1" source="55DVX-BUdbQK49yPEl8O-22" target="55DVX-BUdbQK49yPEl8O-23">
          <mxGeometry relative="1" as="geometry" />
        </mxCell>
        <mxCell id="55DVX-BUdbQK49yPEl8O-22" value="Signaler un incident" style="ellipse;whiteSpace=wrap;html=1;" vertex="1" parent="1">
          <mxGeometry x="170" y="80" width="150" height="60" as="geometry" />
        </mxCell>
        <mxCell id="55DVX-BUdbQK49yPEl8O-23" value="Notifie un medecin" style="ellipse;whiteSpace=wrap;html=1;" vertex="1" parent="1">
          <mxGeometry x="160" y="230" width="130" height="50" as="geometry" />
        </mxCell>
        <mxCell id="55DVX-BUdbQK49yPEl8O-26" value="" style="endArrow=none;html=1;rounded=0;exitX=0.5;exitY=0.5;exitDx=0;exitDy=0;exitPerimeter=0;entryX=0;entryY=1;entryDx=0;entryDy=0;" edge="1" parent="1" source="55DVX-BUdbQK49yPEl8O-4" target="55DVX-BUdbQK49yPEl8O-23">
          <mxGeometry width="50" height="50" relative="1" as="geometry">
            <mxPoint x="60" y="273" as="sourcePoint" />
            <mxPoint x="195" y="250" as="targetPoint" />
          </mxGeometry>
        </mxCell>
        <mxCell id="55DVX-BUdbQK49yPEl8O-29" value="include" style="edgeStyle=orthogonalEdgeStyle;rounded=0;orthogonalLoop=1;jettySize=auto;html=1;" edge="1" parent="1" source="55DVX-BUdbQK49yPEl8O-27" target="55DVX-BUdbQK49yPEl8O-22">
          <mxGeometry relative="1" as="geometry" />
        </mxCell>
        <mxCell id="55DVX-BUdbQK49yPEl8O-27" value="Seuil de risque" style="ellipse;whiteSpace=wrap;html=1;" vertex="1" parent="1">
          <mxGeometry x="460" y="80" width="150" height="60" as="geometry" />
        </mxCell>
        <mxCell id="55DVX-BUdbQK49yPEl8O-28" value="" style="edgeStyle=orthogonalEdgeStyle;rounded=0;orthogonalLoop=1;jettySize=auto;html=1;" edge="1" parent="1" target="55DVX-BUdbQK49yPEl8O-9">
          <mxGeometry relative="1" as="geometry">
            <mxPoint x="445" y="190" as="sourcePoint" />
            <mxPoint x="425" y="330" as="targetPoint" />
          </mxGeometry>
        </mxCell>
        <mxCell id="55DVX-BUdbQK49yPEl8O-9" value="Gerer les incidents" style="ellipse;whiteSpace=wrap;html=1;" vertex="1" parent="1">
          <mxGeometry x="370" y="160" width="150" height="60" as="geometry" />
        </mxCell>
      </root>
    </mxGraphModel>
  </diagram>
</mxfile>
